<svg version="1.2" xmlns="http://www.w3.org/2000/svg" viewBox="0 0 528 512" width="528" height="512">
	<style>
		.s0 { fill: #4bae4f } 
		.s1 { fill: #fefffe } 
	</style>
	<path class="s0" d="m233 1c21.02 0 42.04 0 63.41 0.41 0.86 0.78 1.33 1.38 1.88 1.48 7.74 1.4 15.53 2.55 23.23 4.11 29.62 5.99 56.79 17.97 82.16 34.2 20.72 13.25 38.88 29.4 55.1 47.92 13.4 15.31 24.8 31.93 34.11 49.89 13.7 26.4 22.8 54.36 26.2 84.05 0.09 0.71 1.25 1.29 1.91 1.94 0 21.02 0 42.04-0.41 63.42-0.8 1.03-1.37 1.67-1.53 2.39-2.99 13.9-5.13 28.05-9.04 41.69-8.59 29.99-23.31 56.9-42.41 81.62q-21.26 27.52-48.84 48.32c-17.99 13.56-37.51 24.75-58.62 32.93-19.62 7.6-39.72 13.35-60.71 15.71-0.87 0.1-1.63 1.26-2.44 1.92-21.02 0-42.04 0-63.41-0.41-3.3-1.12-6.21-2.11-9.19-2.51-25.28-3.38-49.17-11.33-71.95-22.47-19.84-9.7-38.16-21.8-54.87-36.38-14.16-12.36-27.17-25.77-38.3-40.83-10.92-14.79-20.38-30.54-27.9-47.44-10.21-22.91-17.57-46.54-20.46-71.51-0.1-0.88-1.26-1.64-1.92-2.45 0-21.02 0-42.04 0.41-63.42 1.13-3.63 2.04-6.88 2.53-10.2 3.65-24.86 11.46-48.42 22.41-70.94 9.67-19.89 21.9-38.11 36.44-54.86 12.21-14.06 25.56-26.88 40.41-38.03 18.06-13.54 37.57-24.69 58.65-32.93 19.59-7.66 39.71-13.36 60.7-15.7 0.88-0.1 1.64-1.26 2.45-1.92zm168.97 166.53q-12.19-12.2-24.39-24.39c-7.83-7.83-11.75-7.84-19.55-0.03-43.7 43.72-87.41 87.44-131.06 131.21-1.39 1.39-2.24 3.33-4.14 6.23-2.3-3.07-3.24-4.7-4.52-5.99-15.63-15.71-31.31-31.37-46.98-47.04-7.4-7.4-11.27-7.36-18.79 0.16q-16.09 16.07-32.17 32.16c-7.31 7.32-7.33 11.18-0.1 18.44q46.03 46.23 92.07 92.44c8.24 8.28 11.67 8.31 19.82 0.16q63.14-63.05 126.27-126.11 25.46-25.44 50.91-50.89c7.68-7.68 7.65-11.32-0.15-19.14-2.24-2.24-4.48-4.48-7.22-7.21z"/>
	<path class="s1" d="m402.22 167.78c2.49 2.48 4.73 4.72 6.97 6.96 7.8 7.82 7.83 11.46 0.15 19.14q-25.45 25.45-50.91 50.89-63.13 63.06-126.27 126.11c-8.15 8.15-11.58 8.12-19.82-0.16q-46.04-46.21-92.07-92.44c-7.23-7.26-7.21-11.12 0.1-18.44q16.08-16.09 32.17-32.16c7.52-7.52 11.39-7.56 18.79-0.16 15.67 15.67 31.35 31.33 46.98 47.04 1.28 1.29 2.22 2.92 4.52 5.99 1.9-2.9 2.75-4.84 4.14-6.23 43.65-43.77 87.36-87.49 131.06-131.21 7.8-7.81 11.72-7.8 19.55 0.03 8.14 8.12 16.26 16.26 24.64 24.64z"/>
</svg>