<svg xmlns="http://www.w3.org/2000/svg" xmlns:xlink="http://www.w3.org/1999/xlink" width="100" zoomAndPan="magnify" viewBox="0 0 75 53.25" height="71" preserveAspectRatio="xMidYMid meet" version="1.0"><defs><clipPath id="4c7c5c2401"><path d="M 0.519531 0 L 74.476562 0 L 74.476562 52.511719 L 0.519531 52.511719 Z M 0.519531 0 " clip-rule="nonzero"/></clipPath><clipPath id="8254100233"><path d="M 47.007812 1.320312 L 60.035156 1.320312 L 60.035156 13.824219 L 47.007812 13.824219 Z M 47.007812 1.320312 " clip-rule="nonzero"/></clipPath><clipPath id="404d466131"><path d="M 49.855469 11.664062 L 47.605469 7.738281 C 46.847656 6.410156 46.851562 4.78125 47.617188 3.457031 C 48.382812 2.136719 49.796875 1.320312 51.324219 1.320312 L 55.738281 1.320312 C 57.265625 1.320312 58.679688 2.136719 59.445312 3.457031 C 60.210938 4.78125 60.21875 6.410156 59.457031 7.738281 L 57.207031 11.664062 C 56.453125 12.980469 55.050781 13.792969 53.53125 13.792969 C 52.011719 13.792969 50.609375 12.980469 49.855469 11.664062 Z M 49.855469 11.664062 " clip-rule="nonzero"/></clipPath><clipPath id="8e3f16a665"><path d="M 0.0078125 0.320312 L 13.035156 0.320312 L 13.035156 12.824219 L 0.0078125 12.824219 Z M 0.0078125 0.320312 " clip-rule="nonzero"/></clipPath><clipPath id="bd4cdb2e1a"><path d="M 2.855469 10.664062 L 0.605469 6.738281 C -0.152344 5.410156 -0.148438 3.78125 0.617188 2.457031 C 1.382812 1.136719 2.796875 0.320312 4.324219 0.320312 L 8.738281 0.320312 C 10.265625 0.320312 11.679688 1.136719 12.445312 2.457031 C 13.210938 3.78125 13.21875 5.410156 12.457031 6.738281 L 10.207031 10.664062 C 9.453125 11.980469 8.050781 12.792969 6.53125 12.792969 C 5.011719 12.792969 3.609375 11.980469 2.855469 10.664062 Z M 2.855469 10.664062 " clip-rule="nonzero"/></clipPath><clipPath id="bba1b9e8f7"><rect x="0" width="14" y="0" height="13"/></clipPath><clipPath id="18597b91fc"><path d="M 36.042969 4.339844 L 49.070312 4.339844 L 49.070312 16.84375 L 36.042969 16.84375 Z M 36.042969 4.339844 " clip-rule="nonzero"/></clipPath><clipPath id="31edd4e240"><path d="M 46.222656 6.503906 L 48.46875 10.425781 C 49.230469 11.753906 49.226562 13.386719 48.460938 14.707031 C 47.691406 16.03125 46.28125 16.84375 44.75 16.84375 L 40.339844 16.84375 C 38.808594 16.84375 37.398438 16.03125 36.628906 14.707031 C 35.863281 13.386719 35.859375 11.753906 36.621094 10.425781 L 38.867188 6.503906 C 39.625 5.183594 41.027344 4.371094 42.542969 4.371094 C 44.0625 4.371094 45.464844 5.183594 46.222656 6.503906 Z M 46.222656 6.503906 " clip-rule="nonzero"/></clipPath><clipPath id="e5adadb841"><path d="M 0.0429688 0.339844 L 13.070312 0.339844 L 13.070312 12.84375 L 0.0429688 12.84375 Z M 0.0429688 0.339844 " clip-rule="nonzero"/></clipPath><clipPath id="66cb205f40"><path d="M 10.222656 2.503906 L 12.46875 6.425781 C 13.230469 7.753906 13.226562 9.386719 12.460938 10.707031 C 11.691406 12.03125 10.28125 12.84375 8.75 12.84375 L 4.339844 12.84375 C 2.808594 12.84375 1.398438 12.03125 0.628906 10.707031 C -0.136719 9.386719 -0.140625 7.753906 0.621094 6.425781 L 2.867188 2.503906 C 3.625 1.183594 5.027344 0.371094 6.542969 0.371094 C 8.0625 0.371094 9.464844 1.183594 10.222656 2.503906 Z M 10.222656 2.503906 " clip-rule="nonzero"/></clipPath><clipPath id="1a584b9d57"><rect x="0" width="14" y="0" height="13"/></clipPath><clipPath id="3d3a22798b"><path d="M 33.96875 17.476562 L 51.148438 17.476562 L 51.148438 34.65625 L 33.96875 34.65625 Z M 33.96875 17.476562 " clip-rule="nonzero"/></clipPath><clipPath id="57f40ac5e5"><path d="M 41.367188 17.476562 L 43.753906 17.476562 C 47.839844 17.476562 51.148438 20.785156 51.148438 24.871094 L 51.148438 27.257812 C 51.148438 31.34375 47.839844 34.65625 43.753906 34.65625 L 41.367188 34.65625 C 37.28125 34.65625 33.96875 31.34375 33.96875 27.257812 L 33.96875 24.871094 C 33.96875 20.785156 37.28125 17.476562 41.367188 17.476562 Z M 41.367188 17.476562 " clip-rule="nonzero"/></clipPath><clipPath id="60ff59cd71"><path d="M 0.96875 0.476562 L 18.148438 0.476562 L 18.148438 17.65625 L 0.96875 17.65625 Z M 0.96875 0.476562 " clip-rule="nonzero"/></clipPath><clipPath id="37f4ea2184"><path d="M 8.367188 0.476562 L 10.753906 0.476562 C 14.839844 0.476562 18.148438 3.785156 18.148438 7.871094 L 18.148438 10.257812 C 18.148438 14.34375 14.839844 17.65625 10.753906 17.65625 L 8.367188 17.65625 C 4.28125 17.65625 0.96875 14.34375 0.96875 10.257812 L 0.96875 7.871094 C 0.96875 3.785156 4.28125 0.476562 8.367188 0.476562 Z M 8.367188 0.476562 " clip-rule="nonzero"/></clipPath><clipPath id="efbffc5d98"><rect x="0" width="19" y="0" height="18"/></clipPath><clipPath id="725fa83e70"><path d="M 57.933594 4.339844 L 70.960938 4.339844 L 70.960938 16.84375 L 57.933594 16.84375 Z M 57.933594 4.339844 " clip-rule="nonzero"/></clipPath><clipPath id="dea5e16fd6"><path d="M 68.113281 6.503906 L 70.363281 10.425781 C 71.121094 11.753906 71.117188 13.386719 70.351562 14.707031 C 69.585938 16.03125 68.171875 16.84375 66.640625 16.84375 L 62.230469 16.84375 C 60.703125 16.84375 59.289062 16.03125 58.519531 14.707031 C 57.753906 13.386719 57.75 11.753906 58.511719 10.425781 L 60.757812 6.503906 C 61.515625 5.183594 62.917969 4.371094 64.4375 4.371094 C 65.953125 4.371094 67.359375 5.183594 68.113281 6.503906 Z M 68.113281 6.503906 " clip-rule="nonzero"/></clipPath><clipPath id="c173c24bfa"><path d="M 0.933594 0.339844 L 13.960938 0.339844 L 13.960938 12.84375 L 0.933594 12.84375 Z M 0.933594 0.339844 " clip-rule="nonzero"/></clipPath><clipPath id="c7deae04b0"><path d="M 11.113281 2.503906 L 13.363281 6.425781 C 14.121094 7.753906 14.117188 9.386719 13.351562 10.707031 C 12.585938 12.03125 11.171875 12.84375 9.640625 12.84375 L 5.230469 12.84375 C 3.703125 12.84375 2.289062 12.03125 1.519531 10.707031 C 0.753906 9.386719 0.75 7.753906 1.511719 6.425781 L 3.757812 2.503906 C 4.515625 1.183594 5.917969 0.371094 7.4375 0.371094 C 8.953125 0.371094 10.359375 1.183594 11.113281 2.503906 Z M 11.113281 2.503906 " clip-rule="nonzero"/></clipPath><clipPath id="c6aedc8ca8"><rect x="0" width="14" y="0" height="13"/></clipPath><clipPath id="bc18dbf3ec"><path d="M 46.988281 38.21875 L 60 38.21875 L 60 50.722656 L 46.988281 50.722656 Z M 46.988281 38.21875 " clip-rule="nonzero"/></clipPath><clipPath id="36eb301fa4"><path d="M 57.167969 40.378906 L 59.414062 44.304688 C 60.175781 45.632812 60.171875 47.261719 59.40625 48.585938 C 58.636719 49.910156 57.226562 50.722656 55.695312 50.722656 L 51.285156 50.722656 C 49.753906 50.722656 48.34375 49.910156 47.574219 48.585938 C 46.808594 47.261719 46.804688 45.632812 47.566406 44.304688 L 49.8125 40.378906 C 50.570312 39.0625 51.972656 38.25 53.492188 38.25 C 55.007812 38.25 56.410156 39.0625 57.167969 40.378906 Z M 57.167969 40.378906 " clip-rule="nonzero"/></clipPath><clipPath id="8a421ecce1"><path d="M 0.988281 0.21875 L 14 0.21875 L 14 12.722656 L 0.988281 12.722656 Z M 0.988281 0.21875 " clip-rule="nonzero"/></clipPath><clipPath id="f7c35ce0c4"><path d="M 11.167969 2.378906 L 13.414062 6.304688 C 14.175781 7.632812 14.171875 9.261719 13.40625 10.585938 C 12.636719 11.910156 11.226562 12.722656 9.695312 12.722656 L 5.285156 12.722656 C 3.753906 12.722656 2.34375 11.910156 1.574219 10.585938 C 0.808594 9.261719 0.804688 7.632812 1.566406 6.304688 L 3.8125 2.378906 C 4.570312 1.0625 5.972656 0.25 7.492188 0.25 C 9.007812 0.25 10.410156 1.0625 11.167969 2.378906 Z M 11.167969 2.378906 " clip-rule="nonzero"/></clipPath><clipPath id="59289d5742"><rect x="0" width="14" y="0" height="13"/></clipPath><clipPath id="1033527979"><path d="M 57.953125 35.199219 L 70.980469 35.199219 L 70.980469 47.703125 L 57.953125 47.703125 Z M 57.953125 35.199219 " clip-rule="nonzero"/></clipPath><clipPath id="2553d58f05"><path d="M 60.800781 45.542969 L 58.550781 41.617188 C 57.792969 40.289062 57.796875 38.660156 58.5625 37.335938 C 59.328125 36.011719 60.742188 35.199219 62.269531 35.199219 L 66.683594 35.199219 C 68.210938 35.199219 69.625 36.011719 70.390625 37.335938 C 71.160156 38.660156 71.164062 40.289062 70.402344 41.617188 L 68.152344 45.542969 C 67.398438 46.859375 65.996094 47.671875 64.476562 47.671875 C 62.957031 47.671875 61.554688 46.859375 60.800781 45.542969 Z M 60.800781 45.542969 " clip-rule="nonzero"/></clipPath><clipPath id="44c63d6a08"><path d="M 0.953125 0.199219 L 13.980469 0.199219 L 13.980469 12.703125 L 0.953125 12.703125 Z M 0.953125 0.199219 " clip-rule="nonzero"/></clipPath><clipPath id="ee8f017a42"><path d="M 3.800781 10.542969 L 1.550781 6.617188 C 0.792969 5.289062 0.796875 3.660156 1.5625 2.335938 C 2.328125 1.011719 3.742188 0.199219 5.269531 0.199219 L 9.683594 0.199219 C 11.210938 0.199219 12.625 1.011719 13.390625 2.335938 C 14.160156 3.660156 14.164062 5.289062 13.402344 6.617188 L 11.152344 10.542969 C 10.398438 11.859375 8.996094 12.671875 7.476562 12.671875 C 5.957031 12.671875 4.554688 11.859375 3.800781 10.542969 Z M 3.800781 10.542969 " clip-rule="nonzero"/></clipPath><clipPath id="833f76f91e"><rect x="0" width="14" y="0" height="13"/></clipPath><clipPath id="a66758a75f"><path d="M 36.0625 35.199219 L 49.089844 35.199219 L 49.089844 47.703125 L 36.0625 47.703125 Z M 36.0625 35.199219 " clip-rule="nonzero"/></clipPath><clipPath id="d33679526a"><path d="M 38.910156 45.542969 L 36.660156 41.617188 C 35.902344 40.289062 35.90625 38.660156 36.671875 37.335938 C 37.4375 36.011719 38.851562 35.199219 40.378906 35.199219 L 44.792969 35.199219 C 46.320312 35.199219 47.734375 36.011719 48.5 37.335938 C 49.265625 38.660156 49.269531 40.289062 48.511719 41.617188 L 46.261719 45.542969 C 45.507812 46.859375 44.105469 47.671875 42.585938 47.671875 C 41.066406 47.671875 39.664062 46.859375 38.910156 45.542969 Z M 38.910156 45.542969 " clip-rule="nonzero"/></clipPath><clipPath id="9a3b9e3afa"><path d="M 0.0625 0.199219 L 13.089844 0.199219 L 13.089844 12.703125 L 0.0625 12.703125 Z M 0.0625 0.199219 " clip-rule="nonzero"/></clipPath><clipPath id="ca1c5e04ca"><path d="M 2.910156 10.542969 L 0.660156 6.617188 C -0.0976562 5.289062 -0.09375 3.660156 0.671875 2.335938 C 1.4375 1.011719 2.851562 0.199219 4.378906 0.199219 L 8.792969 0.199219 C 10.320312 0.199219 11.734375 1.011719 12.5 2.335938 C 13.265625 3.660156 13.269531 5.289062 12.511719 6.617188 L 10.261719 10.542969 C 9.507812 11.859375 8.105469 12.671875 6.585938 12.671875 C 5.066406 12.671875 3.664062 11.859375 2.910156 10.542969 Z M 2.910156 10.542969 " clip-rule="nonzero"/></clipPath><clipPath id="260ec77f3c"><rect x="0" width="14" y="0" height="13"/></clipPath><clipPath id="ec33a6c783"><path d="M 47.5 1.613281 L 59.523438 1.613281 L 59.523438 13.199219 L 47.5 13.199219 Z M 47.5 1.613281 " clip-rule="nonzero"/></clipPath><clipPath id="e667b622ad"><path d="M 49.816406 11.058594 L 48.078125 8.03125 C 47.320312 6.703125 47.324219 5.074219 48.089844 3.75 C 48.855469 2.425781 50.269531 1.613281 51.800781 1.613281 L 55.183594 1.613281 C 56.710938 1.613281 58.125 2.425781 58.890625 3.75 C 59.65625 5.074219 59.660156 6.703125 58.902344 8.03125 L 57.167969 11.058594 C 56.414062 12.375 55.011719 13.1875 53.492188 13.1875 C 51.972656 13.1875 50.570312 12.375 49.816406 11.058594 Z M 49.816406 11.058594 " clip-rule="nonzero"/></clipPath><clipPath id="9318819a8b"><path d="M 0.5 0.613281 L 12.523438 0.613281 L 12.523438 12.199219 L 0.5 12.199219 Z M 0.5 0.613281 " clip-rule="nonzero"/></clipPath><clipPath id="6a2d1ee226"><path d="M 2.816406 10.058594 L 1.078125 7.03125 C 0.320312 5.703125 0.324219 4.074219 1.089844 2.75 C 1.855469 1.425781 3.269531 0.613281 4.800781 0.613281 L 8.183594 0.613281 C 9.710938 0.613281 11.125 1.425781 11.890625 2.75 C 12.65625 4.074219 12.660156 5.703125 11.902344 7.03125 L 10.167969 10.058594 C 9.414062 11.375 8.011719 12.1875 6.492188 12.1875 C 4.972656 12.1875 3.570312 11.375 2.816406 10.058594 Z M 2.816406 10.058594 " clip-rule="nonzero"/></clipPath><clipPath id="e15cdccfe7"><rect x="0" width="13" y="0" height="13"/></clipPath><clipPath id="beff736197"><path d="M 36.585938 5.039062 L 48.605469 5.039062 L 48.605469 16.625 L 36.585938 16.625 Z M 36.585938 5.039062 " clip-rule="nonzero"/></clipPath><clipPath id="a6b3353daf"><path d="M 46.292969 7.183594 L 48.027344 10.210938 C 48.789062 11.535156 48.785156 13.167969 48.019531 14.488281 C 47.25 15.8125 45.839844 16.625 44.308594 16.625 L 40.925781 16.625 C 39.398438 16.625 37.984375 15.8125 37.21875 14.488281 C 36.449219 13.167969 36.445312 11.535156 37.207031 10.210938 L 38.941406 7.183594 C 39.695312 5.863281 41.097656 5.050781 42.617188 5.050781 C 44.136719 5.050781 45.539062 5.863281 46.292969 7.183594 Z M 46.292969 7.183594 " clip-rule="nonzero"/></clipPath><clipPath id="b9b667a234"><path d="M 0.585938 0.0390625 L 12.605469 0.0390625 L 12.605469 11.625 L 0.585938 11.625 Z M 0.585938 0.0390625 " clip-rule="nonzero"/></clipPath><clipPath id="3548fb50f4"><path d="M 10.292969 2.183594 L 12.027344 5.210938 C 12.789062 6.535156 12.785156 8.167969 12.019531 9.488281 C 11.25 10.8125 9.839844 11.625 8.308594 11.625 L 4.925781 11.625 C 3.398438 11.625 1.984375 10.8125 1.21875 9.488281 C 0.449219 8.167969 0.445312 6.535156 1.207031 5.210938 L 2.941406 2.183594 C 3.695312 0.863281 5.097656 0.0507812 6.617188 0.0507812 C 8.136719 0.0507812 9.539062 0.863281 10.292969 2.183594 Z M 10.292969 2.183594 " clip-rule="nonzero"/></clipPath><clipPath id="8f7a11b9a0"><rect x="0" width="13" y="0" height="12"/></clipPath><clipPath id="530373614d"><path d="M 34.503906 17.976562 L 50.765625 17.976562 L 50.765625 34.238281 L 34.503906 34.238281 Z M 34.503906 17.976562 " clip-rule="nonzero"/></clipPath><clipPath id="2a8d93593c"><path d="M 41.898438 17.976562 L 43.367188 17.976562 C 47.453125 17.976562 50.765625 21.289062 50.765625 25.375 L 50.765625 26.839844 C 50.765625 30.925781 47.453125 34.238281 43.367188 34.238281 L 41.898438 34.238281 C 37.816406 34.238281 34.503906 30.925781 34.503906 26.839844 L 34.503906 25.375 C 34.503906 21.289062 37.816406 17.976562 41.898438 17.976562 Z M 41.898438 17.976562 " clip-rule="nonzero"/></clipPath><clipPath id="868b453f0d"><path d="M 0.503906 0.976562 L 16.765625 0.976562 L 16.765625 17.238281 L 0.503906 17.238281 Z M 0.503906 0.976562 " clip-rule="nonzero"/></clipPath><clipPath id="97410de16a"><path d="M 7.898438 0.976562 L 9.367188 0.976562 C 13.453125 0.976562 16.765625 4.289062 16.765625 8.375 L 16.765625 9.839844 C 16.765625 13.925781 13.453125 17.238281 9.367188 17.238281 L 7.898438 17.238281 C 3.816406 17.238281 0.503906 13.925781 0.503906 9.839844 L 0.503906 8.375 C 0.503906 4.289062 3.816406 0.976562 7.898438 0.976562 Z M 7.898438 0.976562 " clip-rule="nonzero"/></clipPath><clipPath id="f3288f427c"><rect x="0" width="17" y="0" height="18"/></clipPath><clipPath id="5fb5bb1b90"><path d="M 58.441406 5.039062 L 70.464844 5.039062 L 70.464844 16.625 L 58.441406 16.625 Z M 58.441406 5.039062 " clip-rule="nonzero"/></clipPath><clipPath id="860e3918b2"><path d="M 68.152344 7.183594 L 69.886719 10.210938 C 70.644531 11.535156 70.640625 13.167969 69.875 14.488281 C 69.109375 15.8125 67.695312 16.625 66.164062 16.625 L 62.78125 16.625 C 61.253906 16.625 59.839844 15.8125 59.074219 14.488281 C 58.308594 13.167969 58.304688 11.535156 59.0625 10.210938 L 60.796875 7.183594 C 61.550781 5.863281 62.957031 5.050781 64.472656 5.050781 C 65.992188 5.050781 67.394531 5.863281 68.152344 7.183594 Z M 68.152344 7.183594 " clip-rule="nonzero"/></clipPath><clipPath id="79293ec6e5"><path d="M 0.441406 0.0390625 L 12.464844 0.0390625 L 12.464844 11.625 L 0.441406 11.625 Z M 0.441406 0.0390625 " clip-rule="nonzero"/></clipPath><clipPath id="0463bfc583"><path d="M 10.152344 2.183594 L 11.886719 5.210938 C 12.644531 6.535156 12.640625 8.167969 11.875 9.488281 C 11.109375 10.8125 9.695312 11.625 8.164062 11.625 L 4.78125 11.625 C 3.253906 11.625 1.839844 10.8125 1.074219 9.488281 C 0.308594 8.167969 0.304688 6.535156 1.0625 5.210938 L 2.796875 2.183594 C 3.550781 0.863281 4.957031 0.0507812 6.472656 0.0507812 C 7.992188 0.0507812 9.394531 0.863281 10.152344 2.183594 Z M 10.152344 2.183594 " clip-rule="nonzero"/></clipPath><clipPath id="b5f98e50ff"><rect x="0" width="13" y="0" height="12"/></clipPath><clipPath id="434a8ff7bb"><path d="M 47.496094 38.6875 L 59.519531 38.6875 L 59.519531 50.273438 L 47.496094 50.273438 Z M 47.496094 38.6875 " clip-rule="nonzero"/></clipPath><clipPath id="09cbdbcc2d"><path d="M 57.207031 40.828125 L 58.941406 43.855469 C 59.699219 45.183594 59.695312 46.8125 58.929688 48.136719 C 58.164062 49.460938 56.75 50.273438 55.21875 50.273438 L 51.835938 50.273438 C 50.308594 50.273438 48.894531 49.460938 48.128906 48.136719 C 47.363281 46.8125 47.359375 45.183594 48.117188 43.855469 L 49.851562 40.828125 C 50.605469 39.511719 52.007812 38.699219 53.527344 38.699219 C 55.046875 38.699219 56.449219 39.511719 57.207031 40.828125 Z M 57.207031 40.828125 " clip-rule="nonzero"/></clipPath><clipPath id="9261eceedb"><path d="M 0.496094 0.6875 L 12.519531 0.6875 L 12.519531 12.273438 L 0.496094 12.273438 Z M 0.496094 0.6875 " clip-rule="nonzero"/></clipPath><clipPath id="adeef8286a"><path d="M 10.207031 2.828125 L 11.941406 5.855469 C 12.699219 7.183594 12.695312 8.8125 11.929688 10.136719 C 11.164062 11.460938 9.75 12.273438 8.21875 12.273438 L 4.835938 12.273438 C 3.308594 12.273438 1.894531 11.460938 1.128906 10.136719 C 0.363281 8.8125 0.359375 7.183594 1.117188 5.855469 L 2.851562 2.828125 C 3.605469 1.511719 5.007812 0.699219 6.527344 0.699219 C 8.046875 0.699219 9.449219 1.511719 10.207031 2.828125 Z M 10.207031 2.828125 " clip-rule="nonzero"/></clipPath><clipPath id="e4e240ff47"><rect x="0" width="13" y="0" height="13"/></clipPath><clipPath id="c365d57ba0"><path d="M 58.488281 35.648438 L 70.507812 35.648438 L 70.507812 47.234375 L 58.488281 47.234375 Z M 58.488281 35.648438 " clip-rule="nonzero"/></clipPath><clipPath id="5f90d90b5e"><path d="M 60.800781 45.09375 L 59.066406 42.066406 C 58.304688 40.738281 58.308594 39.109375 59.078125 37.785156 C 59.84375 36.460938 61.257812 35.648438 62.785156 35.648438 L 66.167969 35.648438 C 67.699219 35.648438 69.109375 36.460938 69.878906 37.785156 C 70.644531 39.109375 70.648438 40.738281 69.886719 42.066406 L 68.152344 45.09375 C 67.398438 46.410156 65.996094 47.222656 64.476562 47.222656 C 62.957031 47.222656 61.554688 46.410156 60.800781 45.09375 Z M 60.800781 45.09375 " clip-rule="nonzero"/></clipPath><clipPath id="d89096f9b0"><path d="M 0.488281 0.648438 L 12.507812 0.648438 L 12.507812 12.234375 L 0.488281 12.234375 Z M 0.488281 0.648438 " clip-rule="nonzero"/></clipPath><clipPath id="026768ed8c"><path d="M 2.800781 10.09375 L 1.066406 7.066406 C 0.304688 5.738281 0.308594 4.109375 1.078125 2.785156 C 1.84375 1.460938 3.257812 0.648438 4.785156 0.648438 L 8.167969 0.648438 C 9.699219 0.648438 11.109375 1.460938 11.878906 2.785156 C 12.644531 4.109375 12.648438 5.738281 11.886719 7.066406 L 10.152344 10.09375 C 9.398438 11.410156 7.996094 12.222656 6.476562 12.222656 C 4.957031 12.222656 3.554688 11.410156 2.800781 10.09375 Z M 2.800781 10.09375 " clip-rule="nonzero"/></clipPath><clipPath id="da2dfc68da"><rect x="0" width="13" y="0" height="13"/></clipPath><clipPath id="0afdb4c1e6"><path d="M 36.644531 35.648438 L 48.664062 35.648438 L 48.664062 47.234375 L 36.644531 47.234375 Z M 36.644531 35.648438 " clip-rule="nonzero"/></clipPath><clipPath id="edfb723650"><path d="M 38.957031 45.09375 L 37.222656 42.066406 C 36.464844 40.738281 36.46875 39.109375 37.234375 37.785156 C 38 36.460938 39.414062 35.648438 40.941406 35.648438 L 44.324219 35.648438 C 45.855469 35.648438 47.269531 36.460938 48.035156 37.785156 C 48.800781 39.109375 48.804688 40.738281 48.046875 42.066406 L 46.3125 45.09375 C 45.554688 46.410156 44.152344 47.222656 42.632812 47.222656 C 41.117188 47.222656 39.710938 46.410156 38.957031 45.09375 Z M 38.957031 45.09375 " clip-rule="nonzero"/></clipPath><clipPath id="4a0096a87c"><path d="M 0.644531 0.648438 L 12.664062 0.648438 L 12.664062 12.234375 L 0.644531 12.234375 Z M 0.644531 0.648438 " clip-rule="nonzero"/></clipPath><clipPath id="4c4356e7ec"><path d="M 2.957031 10.09375 L 1.222656 7.066406 C 0.464844 5.738281 0.46875 4.109375 1.234375 2.785156 C 2 1.460938 3.414062 0.648438 4.941406 0.648438 L 8.324219 0.648438 C 9.855469 0.648438 11.269531 1.460938 12.035156 2.785156 C 12.800781 4.109375 12.804688 5.738281 12.046875 7.066406 L 10.3125 10.09375 C 9.554688 11.410156 8.152344 12.222656 6.632812 12.222656 C 5.117188 12.222656 3.710938 11.410156 2.957031 10.09375 Z M 2.957031 10.09375 " clip-rule="nonzero"/></clipPath><clipPath id="b8fddc9c7e"><rect x="0" width="13" y="0" height="13"/></clipPath><clipPath id="0fb9db23cb"><path d="M 14.582031 1.234375 L 27.613281 1.234375 L 27.613281 13.738281 L 14.582031 13.738281 Z M 14.582031 1.234375 " clip-rule="nonzero"/></clipPath><clipPath id="12708fb9ba"><path d="M 17.433594 11.578125 L 15.183594 7.652344 C 14.421875 6.324219 14.425781 4.695312 15.195312 3.371094 C 15.960938 2.050781 17.375 1.234375 18.902344 1.234375 L 23.316406 1.234375 C 24.84375 1.234375 26.257812 2.050781 27.023438 3.371094 C 27.789062 4.695312 27.792969 6.324219 27.035156 7.652344 L 24.785156 11.578125 C 24.03125 12.894531 22.628906 13.707031 21.109375 13.707031 C 19.589844 13.707031 18.1875 12.894531 17.433594 11.578125 Z M 17.433594 11.578125 " clip-rule="nonzero"/></clipPath><clipPath id="919dbe9654"><path d="M 0.582031 0.234375 L 13.613281 0.234375 L 13.613281 12.726562 L 0.582031 12.726562 Z M 0.582031 0.234375 " clip-rule="nonzero"/></clipPath><clipPath id="7c1667bbf8"><path d="M 3.433594 10.578125 L 1.183594 6.652344 C 0.421875 5.324219 0.425781 3.695312 1.195312 2.371094 C 1.960938 1.050781 3.375 0.234375 4.902344 0.234375 L 9.316406 0.234375 C 10.84375 0.234375 12.257812 1.050781 13.023438 2.371094 C 13.789062 3.695312 13.792969 5.324219 13.035156 6.652344 L 10.785156 10.578125 C 10.03125 11.894531 8.628906 12.707031 7.109375 12.707031 C 5.589844 12.707031 4.1875 11.894531 3.433594 10.578125 Z M 3.433594 10.578125 " clip-rule="nonzero"/></clipPath><clipPath id="aecef1134d"><rect x="0" width="14" y="0" height="13"/></clipPath><clipPath id="645297feeb"><path d="M 3.617188 4.253906 L 16.648438 4.253906 L 16.648438 16.757812 L 3.617188 16.757812 Z M 3.617188 4.253906 " clip-rule="nonzero"/></clipPath><clipPath id="ccaae0bc73"><path d="M 13.796875 6.417969 L 16.046875 10.339844 C 16.808594 11.667969 16.804688 13.300781 16.035156 14.621094 C 15.269531 15.945312 13.855469 16.757812 12.328125 16.757812 L 7.917969 16.757812 C 6.386719 16.757812 4.972656 15.945312 4.207031 14.621094 C 3.441406 13.300781 3.4375 11.667969 4.195312 10.339844 L 6.445312 6.417969 C 7.199219 5.097656 8.601562 4.285156 10.121094 4.285156 C 11.640625 4.285156 13.042969 5.097656 13.796875 6.417969 Z M 13.796875 6.417969 " clip-rule="nonzero"/></clipPath><clipPath id="f1f043a077"><path d="M 0.617188 0.261719 L 13.648438 0.261719 L 13.648438 12.757812 L 0.617188 12.757812 Z M 0.617188 0.261719 " clip-rule="nonzero"/></clipPath><clipPath id="3b537b2aad"><path d="M 10.796875 2.417969 L 13.046875 6.339844 C 13.808594 7.667969 13.804688 9.300781 13.035156 10.621094 C 12.269531 11.945312 10.855469 12.757812 9.328125 12.757812 L 4.917969 12.757812 C 3.386719 12.757812 1.972656 11.945312 1.207031 10.621094 C 0.441406 9.300781 0.4375 7.667969 1.195312 6.339844 L 3.445312 2.417969 C 4.199219 1.097656 5.601562 0.285156 7.121094 0.285156 C 8.640625 0.285156 10.042969 1.097656 10.796875 2.417969 Z M 10.796875 2.417969 " clip-rule="nonzero"/></clipPath><clipPath id="6c966ff3d0"><rect x="0" width="14" y="0" height="13"/></clipPath><clipPath id="95853bb5cf"><path d="M 1.546875 17.390625 L 18.726562 17.390625 L 18.726562 34.570312 L 1.546875 34.570312 Z M 1.546875 17.390625 " clip-rule="nonzero"/></clipPath><clipPath id="3d96877f62"><path d="M 8.941406 17.390625 L 11.332031 17.390625 C 15.414062 17.390625 18.726562 20.699219 18.726562 24.785156 L 18.726562 27.171875 C 18.726562 31.257812 15.414062 34.570312 11.332031 34.570312 L 8.941406 34.570312 C 4.859375 34.570312 1.546875 31.257812 1.546875 27.171875 L 1.546875 24.785156 C 1.546875 20.699219 4.859375 17.390625 8.941406 17.390625 Z M 8.941406 17.390625 " clip-rule="nonzero"/></clipPath><clipPath id="d720f1768b"><path d="M 0.546875 0.390625 L 17.726562 0.390625 L 17.726562 17.570312 L 0.546875 17.570312 Z M 0.546875 0.390625 " clip-rule="nonzero"/></clipPath><clipPath id="2fdd0ffb51"><path d="M 7.941406 0.390625 L 10.332031 0.390625 C 14.414062 0.390625 17.726562 3.699219 17.726562 7.785156 L 17.726562 10.171875 C 17.726562 14.257812 14.414062 17.570312 10.332031 17.570312 L 7.941406 17.570312 C 3.859375 17.570312 0.546875 14.257812 0.546875 10.171875 L 0.546875 7.785156 C 0.546875 3.699219 3.859375 0.390625 7.941406 0.390625 Z M 7.941406 0.390625 " clip-rule="nonzero"/></clipPath><clipPath id="7f3475a641"><rect x="0" width="18" y="0" height="18"/></clipPath><clipPath id="68097681cc"><path d="M 25.511719 4.253906 L 38.539062 4.253906 L 38.539062 16.757812 L 25.511719 16.757812 Z M 25.511719 4.253906 " clip-rule="nonzero"/></clipPath><clipPath id="a29596eb49"><path d="M 35.691406 6.417969 L 37.9375 10.339844 C 38.699219 11.667969 38.695312 13.300781 37.929688 14.621094 C 37.160156 15.945312 35.75 16.757812 34.21875 16.757812 L 29.808594 16.757812 C 28.277344 16.757812 26.867188 15.945312 26.097656 14.621094 C 25.332031 13.300781 25.328125 11.667969 26.089844 10.339844 L 28.335938 6.417969 C 29.089844 5.097656 30.496094 4.285156 32.011719 4.285156 C 33.53125 4.285156 34.933594 5.097656 35.691406 6.417969 Z M 35.691406 6.417969 " clip-rule="nonzero"/></clipPath><clipPath id="57f4ce4170"><path d="M 0.511719 0.261719 L 13.539062 0.261719 L 13.539062 12.757812 L 0.511719 12.757812 Z M 0.511719 0.261719 " clip-rule="nonzero"/></clipPath><clipPath id="f71f7026bf"><path d="M 10.691406 2.417969 L 12.9375 6.339844 C 13.699219 7.667969 13.695312 9.300781 12.929688 10.621094 C 12.160156 11.945312 10.75 12.757812 9.21875 12.757812 L 4.808594 12.757812 C 3.277344 12.757812 1.867188 11.945312 1.097656 10.621094 C 0.332031 9.300781 0.328125 7.667969 1.089844 6.339844 L 3.335938 2.417969 C 4.089844 1.097656 5.496094 0.285156 7.011719 0.285156 C 8.53125 0.285156 9.933594 1.097656 10.691406 2.417969 Z M 10.691406 2.417969 " clip-rule="nonzero"/></clipPath><clipPath id="28f516c570"><rect x="0" width="14" y="0" height="13"/></clipPath><clipPath id="6678e27ab1"><path d="M 14.566406 38.132812 L 27.59375 38.132812 L 27.59375 50.636719 L 14.566406 50.636719 Z M 14.566406 38.132812 " clip-rule="nonzero"/></clipPath><clipPath id="f689ae5e52"><path d="M 24.746094 40.292969 L 26.992188 44.21875 C 27.753906 45.546875 27.75 47.175781 26.980469 48.5 C 26.214844 49.824219 24.800781 50.636719 23.273438 50.636719 L 18.863281 50.636719 C 17.332031 50.636719 15.917969 49.824219 15.152344 48.5 C 14.386719 47.175781 14.382812 45.546875 15.140625 44.21875 L 17.390625 40.292969 C 18.144531 38.976562 19.550781 38.164062 21.066406 38.164062 C 22.585938 38.164062 23.988281 38.976562 24.746094 40.292969 Z M 24.746094 40.292969 " clip-rule="nonzero"/></clipPath><clipPath id="32ea6eedd0"><path d="M 0.566406 0.132812 L 13.59375 0.132812 L 13.59375 12.636719 L 0.566406 12.636719 Z M 0.566406 0.132812 " clip-rule="nonzero"/></clipPath><clipPath id="e49a4dc85d"><path d="M 10.746094 2.292969 L 12.992188 6.21875 C 13.753906 7.546875 13.75 9.175781 12.980469 10.5 C 12.214844 11.824219 10.800781 12.636719 9.273438 12.636719 L 4.863281 12.636719 C 3.332031 12.636719 1.917969 11.824219 1.152344 10.5 C 0.386719 9.175781 0.382812 7.546875 1.140625 6.21875 L 3.390625 2.292969 C 4.144531 0.976562 5.550781 0.164062 7.066406 0.164062 C 8.585938 0.164062 9.988281 0.976562 10.746094 2.292969 Z M 10.746094 2.292969 " clip-rule="nonzero"/></clipPath><clipPath id="5c4ab2a3d6"><rect x="0" width="14" y="0" height="13"/></clipPath><clipPath id="c81fd205c3"><path d="M 25.53125 35.113281 L 38.558594 35.113281 L 38.558594 47.617188 L 25.53125 47.617188 Z M 25.53125 35.113281 " clip-rule="nonzero"/></clipPath><clipPath id="b24a34c564"><path d="M 28.378906 45.457031 L 26.128906 41.53125 C 25.367188 40.203125 25.375 38.574219 26.140625 37.25 C 26.90625 35.925781 28.320312 35.113281 29.847656 35.113281 L 34.261719 35.113281 C 35.789062 35.113281 37.203125 35.925781 37.96875 37.25 C 38.734375 38.574219 38.738281 40.203125 37.980469 41.53125 L 35.730469 45.457031 C 34.976562 46.773438 33.574219 47.585938 32.054688 47.585938 C 30.535156 47.585938 29.132812 46.773438 28.378906 45.457031 Z M 28.378906 45.457031 " clip-rule="nonzero"/></clipPath><clipPath id="a489f71abe"><path d="M 0.53125 0.113281 L 13.558594 0.113281 L 13.558594 12.617188 L 0.53125 12.617188 Z M 0.53125 0.113281 " clip-rule="nonzero"/></clipPath><clipPath id="678c8ba89d"><path d="M 3.378906 10.457031 L 1.128906 6.53125 C 0.367188 5.203125 0.375 3.574219 1.140625 2.25 C 1.90625 0.925781 3.320312 0.113281 4.847656 0.113281 L 9.261719 0.113281 C 10.789062 0.113281 12.203125 0.925781 12.96875 2.25 C 13.734375 3.574219 13.738281 5.203125 12.980469 6.53125 L 10.730469 10.457031 C 9.976562 11.773438 8.574219 12.585938 7.054688 12.585938 C 5.535156 12.585938 4.132812 11.773438 3.378906 10.457031 Z M 3.378906 10.457031 " clip-rule="nonzero"/></clipPath><clipPath id="f960d6d466"><rect x="0" width="14" y="0" height="13"/></clipPath><clipPath id="9518b22170"><path d="M 3.636719 35.113281 L 16.667969 35.113281 L 16.667969 47.617188 L 3.636719 47.617188 Z M 3.636719 35.113281 " clip-rule="nonzero"/></clipPath><clipPath id="180216cd3e"><path d="M 6.488281 45.457031 L 4.238281 41.53125 C 3.476562 40.203125 3.480469 38.574219 4.25 37.25 C 5.015625 35.925781 6.429688 35.113281 7.957031 35.113281 L 12.371094 35.113281 C 13.898438 35.113281 15.3125 35.925781 16.078125 37.25 C 16.84375 38.574219 16.847656 40.203125 16.089844 41.53125 L 13.839844 45.457031 C 13.085938 46.773438 11.683594 47.585938 10.164062 47.585938 C 8.644531 47.585938 7.242188 46.773438 6.488281 45.457031 Z M 6.488281 45.457031 " clip-rule="nonzero"/></clipPath><clipPath id="d14e92fc83"><path d="M 0.636719 0.113281 L 13.667969 0.113281 L 13.667969 12.617188 L 0.636719 12.617188 Z M 0.636719 0.113281 " clip-rule="nonzero"/></clipPath><clipPath id="e8657be6c0"><path d="M 3.488281 10.457031 L 1.238281 6.53125 C 0.476562 5.203125 0.480469 3.574219 1.25 2.25 C 2.015625 0.925781 3.429688 0.113281 4.957031 0.113281 L 9.371094 0.113281 C 10.898438 0.113281 12.3125 0.925781 13.078125 2.25 C 13.84375 3.574219 13.847656 5.203125 13.089844 6.53125 L 10.839844 10.457031 C 10.085938 11.773438 8.683594 12.585938 7.164062 12.585938 C 5.644531 12.585938 4.242188 11.773438 3.488281 10.457031 Z M 3.488281 10.457031 " clip-rule="nonzero"/></clipPath><clipPath id="c2733dbf98"><rect x="0" width="14" y="0" height="13"/></clipPath><clipPath id="982877a102"><path d="M 15.078125 1.527344 L 27.097656 1.527344 L 27.097656 13.113281 L 15.078125 13.113281 Z M 15.078125 1.527344 " clip-rule="nonzero"/></clipPath><clipPath id="3417e9fca9"><path d="M 17.390625 10.972656 L 15.65625 7.945312 C 14.898438 6.617188 14.902344 4.988281 15.667969 3.664062 C 16.433594 2.34375 17.847656 1.527344 19.375 1.527344 L 22.761719 1.527344 C 24.289062 1.527344 25.703125 2.34375 26.46875 3.664062 C 27.234375 4.988281 27.238281 6.617188 26.480469 7.945312 L 24.746094 10.972656 C 23.988281 12.289062 22.585938 13.101562 21.066406 13.101562 C 19.550781 13.101562 18.148438 12.289062 17.390625 10.972656 Z M 17.390625 10.972656 " clip-rule="nonzero"/></clipPath><clipPath id="8805635945"><path d="M 0.078125 0.527344 L 12.097656 0.527344 L 12.097656 12.113281 L 0.078125 12.113281 Z M 0.078125 0.527344 " clip-rule="nonzero"/></clipPath><clipPath id="0ca4856ee9"><path d="M 2.390625 9.972656 L 0.65625 6.945312 C -0.101562 5.617188 -0.0976562 3.988281 0.667969 2.664062 C 1.433594 1.34375 2.847656 0.527344 4.375 0.527344 L 7.761719 0.527344 C 9.289062 0.527344 10.703125 1.34375 11.46875 2.664062 C 12.234375 3.988281 12.238281 5.617188 11.480469 6.945312 L 9.746094 9.972656 C 8.988281 11.289062 7.585938 12.101562 6.066406 12.101562 C 4.550781 12.101562 3.148438 11.289062 2.390625 9.972656 Z M 2.390625 9.972656 " clip-rule="nonzero"/></clipPath><clipPath id="ad4fc5edfa"><rect x="0" width="13" y="0" height="13"/></clipPath><clipPath id="35e91e65f8"><path d="M 4.164062 4.953125 L 16.183594 4.953125 L 16.183594 16.539062 L 4.164062 16.539062 Z M 4.164062 4.953125 " clip-rule="nonzero"/></clipPath><clipPath id="1947c9abab"><path d="M 13.871094 7.097656 L 15.605469 10.125 C 16.367188 11.449219 16.363281 13.082031 15.59375 14.402344 C 14.828125 15.726562 13.414062 16.539062 11.886719 16.539062 L 8.503906 16.539062 C 6.972656 16.539062 5.5625 15.726562 4.792969 14.402344 C 4.027344 13.082031 4.023438 11.449219 4.785156 10.125 L 6.519531 7.097656 C 7.273438 5.777344 8.675781 4.964844 10.195312 4.964844 C 11.714844 4.964844 13.117188 5.777344 13.871094 7.097656 Z M 13.871094 7.097656 " clip-rule="nonzero"/></clipPath><clipPath id="35492ddd58"><path d="M 0.164062 0.953125 L 12.183594 0.953125 L 12.183594 12.539062 L 0.164062 12.539062 Z M 0.164062 0.953125 " clip-rule="nonzero"/></clipPath><clipPath id="eaab9839f4"><path d="M 9.871094 3.097656 L 11.605469 6.125 C 12.367188 7.449219 12.363281 9.082031 11.59375 10.402344 C 10.828125 11.726562 9.414062 12.539062 7.886719 12.539062 L 4.503906 12.539062 C 2.972656 12.539062 1.5625 11.726562 0.792969 10.402344 C 0.0273438 9.082031 0.0234375 7.449219 0.785156 6.125 L 2.519531 3.097656 C 3.273438 1.777344 4.675781 0.964844 6.195312 0.964844 C 7.714844 0.964844 9.117188 1.777344 9.871094 3.097656 Z M 9.871094 3.097656 " clip-rule="nonzero"/></clipPath><clipPath id="3a1f21e79e"><rect x="0" width="13" y="0" height="13"/></clipPath><clipPath id="bb111be58c"><path d="M 2.082031 17.890625 L 18.339844 17.890625 L 18.339844 34.152344 L 2.082031 34.152344 Z M 2.082031 17.890625 " clip-rule="nonzero"/></clipPath><clipPath id="6fb0bd7f50"><path d="M 9.476562 17.890625 L 10.945312 17.890625 C 15.03125 17.890625 18.339844 21.203125 18.339844 25.289062 L 18.339844 26.757812 C 18.339844 30.839844 15.03125 34.152344 10.945312 34.152344 L 9.476562 34.152344 C 5.394531 34.152344 2.082031 30.839844 2.082031 26.757812 L 2.082031 25.289062 C 2.082031 21.203125 5.394531 17.890625 9.476562 17.890625 Z M 9.476562 17.890625 " clip-rule="nonzero"/></clipPath><clipPath id="94038f18a6"><path d="M 0.0820312 0.890625 L 16.339844 0.890625 L 16.339844 17.152344 L 0.0820312 17.152344 Z M 0.0820312 0.890625 " clip-rule="nonzero"/></clipPath><clipPath id="dbd3e398ef"><path d="M 7.476562 0.890625 L 8.945312 0.890625 C 13.03125 0.890625 16.339844 4.203125 16.339844 8.289062 L 16.339844 9.757812 C 16.339844 13.839844 13.03125 17.152344 8.945312 17.152344 L 7.476562 17.152344 C 3.394531 17.152344 0.0820312 13.839844 0.0820312 9.757812 L 0.0820312 8.289062 C 0.0820312 4.203125 3.394531 0.890625 7.476562 0.890625 Z M 7.476562 0.890625 " clip-rule="nonzero"/></clipPath><clipPath id="cf870d7211"><rect x="0" width="17" y="0" height="18"/></clipPath><clipPath id="1a01a9067f"><path d="M 26.019531 4.953125 L 38.039062 4.953125 L 38.039062 16.539062 L 26.019531 16.539062 Z M 26.019531 4.953125 " clip-rule="nonzero"/></clipPath><clipPath id="731bdeea18"><path d="M 35.726562 7.097656 L 37.460938 10.125 C 38.222656 11.449219 38.21875 13.082031 37.453125 14.402344 C 36.683594 15.726562 35.273438 16.539062 33.742188 16.539062 L 30.359375 16.539062 C 28.832031 16.539062 27.417969 15.726562 26.652344 14.402344 C 25.882812 13.082031 25.878906 11.449219 26.640625 10.125 L 28.375 7.097656 C 29.128906 5.777344 30.53125 4.964844 32.050781 4.964844 C 33.570312 4.964844 34.972656 5.777344 35.726562 7.097656 Z M 35.726562 7.097656 " clip-rule="nonzero"/></clipPath><clipPath id="4dd06f5565"><path d="M 0.0195312 0.953125 L 12.039062 0.953125 L 12.039062 12.539062 L 0.0195312 12.539062 Z M 0.0195312 0.953125 " clip-rule="nonzero"/></clipPath><clipPath id="a21b3fec87"><path d="M 9.726562 3.097656 L 11.460938 6.125 C 12.222656 7.449219 12.21875 9.082031 11.453125 10.402344 C 10.683594 11.726562 9.273438 12.539062 7.742188 12.539062 L 4.359375 12.539062 C 2.832031 12.539062 1.417969 11.726562 0.652344 10.402344 C -0.117188 9.082031 -0.121094 7.449219 0.640625 6.125 L 2.375 3.097656 C 3.128906 1.777344 4.53125 0.964844 6.050781 0.964844 C 7.570312 0.964844 8.972656 1.777344 9.726562 3.097656 Z M 9.726562 3.097656 " clip-rule="nonzero"/></clipPath><clipPath id="03553a8f26"><rect x="0" width="13" y="0" height="13"/></clipPath><clipPath id="126b1a187b"><path d="M 15.074219 38.601562 L 27.09375 38.601562 L 27.09375 50.1875 L 15.074219 50.1875 Z M 15.074219 38.601562 " clip-rule="nonzero"/></clipPath><clipPath id="c24106069b"><path d="M 24.78125 40.742188 L 26.515625 43.769531 C 27.277344 45.097656 27.273438 46.726562 26.507812 48.050781 C 25.738281 49.375 24.328125 50.1875 22.796875 50.1875 L 19.414062 50.1875 C 17.886719 50.1875 16.472656 49.375 15.707031 48.050781 C 14.9375 46.726562 14.933594 45.097656 15.695312 43.769531 L 17.429688 40.742188 C 18.183594 39.425781 19.585938 38.613281 21.105469 38.613281 C 22.625 38.613281 24.027344 39.425781 24.78125 40.742188 Z M 24.78125 40.742188 " clip-rule="nonzero"/></clipPath><clipPath id="9cd2090d50"><path d="M 0.0742188 0.601562 L 12.09375 0.601562 L 12.09375 12.1875 L 0.0742188 12.1875 Z M 0.0742188 0.601562 " clip-rule="nonzero"/></clipPath><clipPath id="0bb6f8de16"><path d="M 9.78125 2.742188 L 11.515625 5.769531 C 12.277344 7.097656 12.273438 8.726562 11.507812 10.050781 C 10.738281 11.375 9.328125 12.1875 7.796875 12.1875 L 4.414062 12.1875 C 2.886719 12.1875 1.472656 11.375 0.707031 10.050781 C -0.0625 8.726562 -0.0664062 7.097656 0.695312 5.769531 L 2.429688 2.742188 C 3.183594 1.425781 4.585938 0.613281 6.105469 0.613281 C 7.625 0.613281 9.027344 1.425781 9.78125 2.742188 Z M 9.78125 2.742188 " clip-rule="nonzero"/></clipPath><clipPath id="26dec051f8"><rect x="0" width="13" y="0" height="13"/></clipPath><clipPath id="dd4d044d53"><path d="M 26.066406 35.5625 L 38.085938 35.5625 L 38.085938 47.148438 L 26.066406 47.148438 Z M 26.066406 35.5625 " clip-rule="nonzero"/></clipPath><clipPath id="60ea4b083e"><path d="M 28.378906 45.007812 L 26.644531 41.980469 C 25.882812 40.652344 25.886719 39.023438 26.652344 37.699219 C 27.421875 36.375 28.832031 35.5625 30.363281 35.5625 L 33.746094 35.5625 C 35.273438 35.5625 36.6875 36.375 37.453125 37.699219 C 38.222656 39.023438 38.226562 40.652344 37.464844 41.980469 L 35.730469 45.007812 C 34.976562 46.324219 33.574219 47.136719 32.054688 47.136719 C 30.535156 47.136719 29.132812 46.324219 28.378906 45.007812 Z M 28.378906 45.007812 " clip-rule="nonzero"/></clipPath><clipPath id="ce50421a75"><path d="M 0.0664062 0.5625 L 12.085938 0.5625 L 12.085938 12.148438 L 0.0664062 12.148438 Z M 0.0664062 0.5625 " clip-rule="nonzero"/></clipPath><clipPath id="86aa7c3add"><path d="M 2.378906 10.007812 L 0.644531 6.980469 C -0.117188 5.652344 -0.113281 4.023438 0.652344 2.699219 C 1.421875 1.375 2.832031 0.5625 4.363281 0.5625 L 7.746094 0.5625 C 9.273438 0.5625 10.6875 1.375 11.453125 2.699219 C 12.222656 4.023438 12.226562 5.652344 11.464844 6.980469 L 9.730469 10.007812 C 8.976562 11.324219 7.574219 12.136719 6.054688 12.136719 C 4.535156 12.136719 3.132812 11.324219 2.378906 10.007812 Z M 2.378906 10.007812 " clip-rule="nonzero"/></clipPath><clipPath id="ccc8dffa9a"><rect x="0" width="13" y="0" height="13"/></clipPath><clipPath id="dcd7b0b5ad"><path d="M 4.222656 35.5625 L 16.242188 35.5625 L 16.242188 47.148438 L 4.222656 47.148438 Z M 4.222656 35.5625 " clip-rule="nonzero"/></clipPath><clipPath id="a1843d45da"><path d="M 6.535156 45.007812 L 4.800781 41.980469 C 4.039062 40.652344 4.042969 39.023438 4.8125 37.699219 C 5.578125 36.375 6.992188 35.5625 8.519531 35.5625 L 11.902344 35.5625 C 13.433594 35.5625 14.84375 36.375 15.613281 37.699219 C 16.378906 39.023438 16.382812 40.652344 15.621094 41.980469 L 13.886719 45.007812 C 13.132812 46.324219 11.730469 47.136719 10.210938 47.136719 C 8.691406 47.136719 7.289062 46.324219 6.535156 45.007812 Z M 6.535156 45.007812 " clip-rule="nonzero"/></clipPath><clipPath id="cea18d6086"><path d="M 0.222656 0.5625 L 12.242188 0.5625 L 12.242188 12.148438 L 0.222656 12.148438 Z M 0.222656 0.5625 " clip-rule="nonzero"/></clipPath><clipPath id="68ebcf9808"><path d="M 2.535156 10.007812 L 0.800781 6.980469 C 0.0390625 5.652344 0.0429688 4.023438 0.8125 2.699219 C 1.578125 1.375 2.992188 0.5625 4.519531 0.5625 L 7.902344 0.5625 C 9.433594 0.5625 10.84375 1.375 11.613281 2.699219 C 12.378906 4.023438 12.382812 5.652344 11.621094 6.980469 L 9.886719 10.007812 C 9.132812 11.324219 7.730469 12.136719 6.210938 12.136719 C 4.691406 12.136719 3.289062 11.324219 2.535156 10.007812 Z M 2.535156 10.007812 " clip-rule="nonzero"/></clipPath><clipPath id="3a05d9412a"><rect x="0" width="13" y="0" height="13"/></clipPath><clipPath id="4a37b251a2"><path d="M 19.429688 22.753906 L 33.476562 22.753906 L 33.476562 28.984375 L 19.429688 28.984375 Z M 19.429688 22.753906 " clip-rule="nonzero"/></clipPath><clipPath id="61b4175726"><path d="M 30.351562 22.753906 C 32.074219 22.753906 33.46875 24.148438 33.46875 25.871094 C 33.46875 27.589844 32.074219 28.984375 30.351562 28.984375 L 22.546875 28.984375 C 20.824219 28.984375 19.429688 27.589844 19.429688 25.871094 C 19.429688 24.148438 20.824219 22.753906 22.546875 22.753906 Z M 30.351562 22.753906 " clip-rule="nonzero"/></clipPath><clipPath id="f362934e0f"><path d="M 0.429688 0.753906 L 14.476562 0.753906 L 14.476562 6.984375 L 0.429688 6.984375 Z M 0.429688 0.753906 " clip-rule="nonzero"/></clipPath><clipPath id="4f781d1bd2"><path d="M 11.351562 0.753906 C 13.074219 0.753906 14.46875 2.148438 14.46875 3.871094 C 14.46875 5.589844 13.074219 6.984375 11.351562 6.984375 L 3.546875 6.984375 C 1.824219 6.984375 0.429688 5.589844 0.429688 3.871094 C 0.429688 2.148438 1.824219 0.753906 3.546875 0.753906 Z M 11.351562 0.753906 " clip-rule="nonzero"/></clipPath><clipPath id="9b2fdbafd6"><rect x="0" width="15" y="0" height="7"/></clipPath><clipPath id="06657e6b16"><path d="M 23.332031 18.90625 L 29.5625 18.90625 L 29.5625 32.953125 L 23.332031 32.953125 Z M 23.332031 18.90625 " clip-rule="nonzero"/></clipPath><clipPath id="a753b79eaf"><path d="M 23.332031 22.03125 C 23.332031 20.3125 24.726562 18.914062 26.445312 18.914062 C 28.167969 18.914062 29.5625 20.3125 29.5625 22.03125 L 29.5625 29.839844 C 29.5625 31.558594 28.167969 32.953125 26.445312 32.953125 C 24.726562 32.953125 23.332031 31.558594 23.332031 29.839844 Z M 23.332031 22.03125 " clip-rule="nonzero"/></clipPath><clipPath id="a39b5d8282"><path d="M 0.332031 0.90625 L 6.5625 0.90625 L 6.5625 14.953125 L 0.332031 14.953125 Z M 0.332031 0.90625 " clip-rule="nonzero"/></clipPath><clipPath id="9f772ecdb7"><path d="M 0.332031 4.03125 C 0.332031 2.3125 1.726562 0.914062 3.445312 0.914062 C 5.167969 0.914062 6.5625 2.3125 6.5625 4.03125 L 6.5625 11.839844 C 6.5625 13.558594 5.167969 14.953125 3.445312 14.953125 C 1.726562 14.953125 0.332031 13.558594 0.332031 11.839844 Z M 0.332031 4.03125 " clip-rule="nonzero"/></clipPath><clipPath id="baf66c8da5"><rect x="0" width="7" y="0" height="15"/></clipPath><clipPath id="72407caa10"><path d="M 51.804688 22.839844 L 65.855469 22.839844 L 65.855469 29.070312 L 51.804688 29.070312 Z M 51.804688 22.839844 " clip-rule="nonzero"/></clipPath><clipPath id="ddb627edb3"><path d="M 62.726562 22.839844 C 64.449219 22.839844 65.84375 24.234375 65.84375 25.953125 C 65.84375 27.675781 64.449219 29.070312 62.726562 29.070312 L 54.921875 29.070312 C 53.199219 29.070312 51.804688 27.675781 51.804688 25.953125 C 51.804688 24.234375 53.199219 22.839844 54.921875 22.839844 Z M 62.726562 22.839844 " clip-rule="nonzero"/></clipPath><clipPath id="8fb8d2a7b9"><path d="M 0.804688 0.839844 L 14.855469 0.839844 L 14.855469 7.070312 L 0.804688 7.070312 Z M 0.804688 0.839844 " clip-rule="nonzero"/></clipPath><clipPath id="b7d4d68dfe"><path d="M 11.726562 0.839844 C 13.449219 0.839844 14.84375 2.234375 14.84375 3.953125 C 14.84375 5.675781 13.449219 7.070312 11.726562 7.070312 L 3.921875 7.070312 C 2.199219 7.070312 0.804688 5.675781 0.804688 3.953125 C 0.804688 2.234375 2.199219 0.839844 3.921875 0.839844 Z M 11.726562 0.839844 " clip-rule="nonzero"/></clipPath><clipPath id="f9dcb4016d"><rect x="0" width="15" y="0" height="8"/></clipPath><clipPath id="09ee685860"><path d="M 55.707031 19 L 61.941406 19 L 61.941406 33.039062 L 55.707031 33.039062 Z M 55.707031 19 " clip-rule="nonzero"/></clipPath><clipPath id="72664e30a4"><path d="M 55.707031 22.117188 C 55.707031 20.394531 57.101562 19 58.824219 19 C 60.546875 19 61.941406 20.394531 61.941406 22.117188 L 61.941406 29.921875 C 61.941406 31.644531 60.546875 33.039062 58.824219 33.039062 C 57.101562 33.039062 55.707031 31.644531 55.707031 29.921875 Z M 55.707031 22.117188 " clip-rule="nonzero"/></clipPath><clipPath id="bd19eb3810"><path d="M 0.707031 0 L 6.941406 0 L 6.941406 14.039062 L 0.707031 14.039062 Z M 0.707031 0 " clip-rule="nonzero"/></clipPath><clipPath id="d10c0ac4d4"><path d="M 0.707031 3.117188 C 0.707031 1.394531 2.101562 0 3.824219 0 C 5.546875 0 6.941406 1.394531 6.941406 3.117188 L 6.941406 10.921875 C 6.941406 12.644531 5.546875 14.039062 3.824219 14.039062 C 2.101562 14.039062 0.707031 12.644531 0.707031 10.921875 Z M 0.707031 3.117188 " clip-rule="nonzero"/></clipPath><clipPath id="4ccae2e601"><rect x="0" width="7" y="0" height="15"/></clipPath><clipPath id="a82266ee23"><rect x="0" width="75" y="0" height="53"/></clipPath></defs><g clip-path="url(#4c7c5c2401)"><g transform="matrix(1, 0, 0, 1, 0.000000000000000111, -0.00000000000000563)"><g clip-path="url(#a82266ee23)"><g clip-path="url(#8254100233)"><g clip-path="url(#404d466131)"><g transform="matrix(1, 0, 0, 1, 47, 1)"><g clip-path="url(#bba1b9e8f7)"><g clip-path="url(#8e3f16a665)"><g clip-path="url(#bd4cdb2e1a)"><path fill="#d9d9d9" d="M -3.070312 0.320312 L 16.113281 0.320312 L 16.113281 17.082031 L -3.070312 17.082031 Z M -3.070312 0.320312 " fill-opacity="1" fill-rule="nonzero"/></g></g></g></g></g></g><g clip-path="url(#18597b91fc)"><g clip-path="url(#31edd4e240)"><g transform="matrix(1, 0, 0, 1, 36, 4)"><g clip-path="url(#1a584b9d57)"><g clip-path="url(#e5adadb841)"><g clip-path="url(#66cb205f40)"><path fill="#d9d9d9" d="M 16.148438 12.84375 L -3.035156 12.84375 L -3.035156 -3.914062 L 16.148438 -3.914062 Z M 16.148438 12.84375 " fill-opacity="1" fill-rule="nonzero"/></g></g></g></g></g></g><g clip-path="url(#3d3a22798b)"><g clip-path="url(#57f40ac5e5)"><g transform="matrix(1, 0, 0, 1, 33, 17)"><g clip-path="url(#efbffc5d98)"><g clip-path="url(#60ff59cd71)"><g clip-path="url(#37f4ea2184)"><path fill="#d9d9d9" d="M 0.96875 0.476562 L 18.148438 0.476562 L 18.148438 17.65625 L 0.96875 17.65625 Z M 0.96875 0.476562 " fill-opacity="1" fill-rule="nonzero"/></g></g></g></g></g></g><g clip-path="url(#725fa83e70)"><g clip-path="url(#dea5e16fd6)"><g transform="matrix(1, 0, 0, 1, 57, 4)"><g clip-path="url(#c6aedc8ca8)"><g clip-path="url(#c173c24bfa)"><g clip-path="url(#c7deae04b0)"><path fill="#d9d9d9" d="M 17.039062 12.84375 L -2.144531 12.84375 L -2.144531 -3.914062 L 17.039062 -3.914062 Z M 17.039062 12.84375 " fill-opacity="1" fill-rule="nonzero"/></g></g></g></g></g></g><g clip-path="url(#bc18dbf3ec)"><g clip-path="url(#36eb301fa4)"><g transform="matrix(1, 0, 0, 1, 46, 38)"><g clip-path="url(#59289d5742)"><g clip-path="url(#8a421ecce1)"><g clip-path="url(#f7c35ce0c4)"><path fill="#d9d9d9" d="M 17.09375 12.722656 L -2.089844 12.722656 L -2.089844 -4.035156 L 17.09375 -4.035156 Z M 17.09375 12.722656 " fill-opacity="1" fill-rule="nonzero"/></g></g></g></g></g></g><g clip-path="url(#1033527979)"><g clip-path="url(#2553d58f05)"><g transform="matrix(1, 0, 0, 1, 57, 35)"><g clip-path="url(#833f76f91e)"><g clip-path="url(#44c63d6a08)"><g clip-path="url(#ee8f017a42)"><path fill="#d9d9d9" d="M -2.125 0.199219 L 17.058594 0.199219 L 17.058594 16.957031 L -2.125 16.957031 Z M -2.125 0.199219 " fill-opacity="1" fill-rule="nonzero"/></g></g></g></g></g></g><g clip-path="url(#a66758a75f)"><g clip-path="url(#d33679526a)"><g transform="matrix(1, 0, 0, 1, 36, 35)"><g clip-path="url(#260ec77f3c)"><g clip-path="url(#9a3b9e3afa)"><g clip-path="url(#ca1c5e04ca)"><path fill="#d9d9d9" d="M -3.015625 0.199219 L 16.167969 0.199219 L 16.167969 16.957031 L -3.015625 16.957031 Z M -3.015625 0.199219 " fill-opacity="1" fill-rule="nonzero"/></g></g></g></g></g></g><g clip-path="url(#ec33a6c783)"><g clip-path="url(#e667b622ad)"><g transform="matrix(1, 0, 0, 1, 47, 1)"><g clip-path="url(#e15cdccfe7)"><g clip-path="url(#9318819a8b)"><g clip-path="url(#6a2d1ee226)"><path fill="#28313b" d="M -2.597656 0.613281 L 15.558594 0.613281 L 15.558594 16.476562 L -2.597656 16.476562 Z M -2.597656 0.613281 " fill-opacity="1" fill-rule="nonzero"/></g></g></g></g></g></g><g clip-path="url(#beff736197)"><g clip-path="url(#a6b3353daf)"><g transform="matrix(1, 0, 0, 1, 36, 5)"><g clip-path="url(#8f7a11b9a0)"><g clip-path="url(#b9b667a234)"><g clip-path="url(#3548fb50f4)"><path fill="#28313b" d="M 15.707031 11.625 L -2.449219 11.625 L -2.449219 -4.234375 L 15.707031 -4.234375 Z M 15.707031 11.625 " fill-opacity="1" fill-rule="nonzero"/></g></g></g></g></g></g><g clip-path="url(#530373614d)"><g clip-path="url(#2a8d93593c)"><g transform="matrix(1, 0, 0, 1, 34, 17)"><g clip-path="url(#f3288f427c)"><g clip-path="url(#868b453f0d)"><g clip-path="url(#97410de16a)"><path fill="#28313b" d="M 0.503906 0.976562 L 16.765625 0.976562 L 16.765625 17.238281 L 0.503906 17.238281 Z M 0.503906 0.976562 " fill-opacity="1" fill-rule="nonzero"/></g></g></g></g></g></g><g clip-path="url(#5fb5bb1b90)"><g clip-path="url(#860e3918b2)"><g transform="matrix(1, 0, 0, 1, 58, 5)"><g clip-path="url(#b5f98e50ff)"><g clip-path="url(#79293ec6e5)"><g clip-path="url(#0463bfc583)"><path fill="#28313b" d="M 15.5625 11.625 L -2.59375 11.625 L -2.59375 -4.234375 L 15.5625 -4.234375 Z M 15.5625 11.625 " fill-opacity="1" fill-rule="nonzero"/></g></g></g></g></g></g><g clip-path="url(#434a8ff7bb)"><g clip-path="url(#09cbdbcc2d)"><g transform="matrix(1, 0, 0, 1, 47, 38)"><g clip-path="url(#e4e240ff47)"><g clip-path="url(#9261eceedb)"><g clip-path="url(#adeef8286a)"><path fill="#28313b" d="M 15.617188 12.273438 L -2.539062 12.273438 L -2.539062 -3.589844 L 15.617188 -3.589844 Z M 15.617188 12.273438 " fill-opacity="1" fill-rule="nonzero"/></g></g></g></g></g></g><g clip-path="url(#c365d57ba0)"><g clip-path="url(#5f90d90b5e)"><g transform="matrix(1, 0, 0, 1, 58, 35)"><g clip-path="url(#da2dfc68da)"><g clip-path="url(#d89096f9b0)"><g clip-path="url(#026768ed8c)"><path fill="#28313b" d="M -2.609375 0.648438 L 15.542969 0.648438 L 15.542969 16.507812 L -2.609375 16.507812 Z M -2.609375 0.648438 " fill-opacity="1" fill-rule="nonzero"/></g></g></g></g></g></g><g clip-path="url(#0afdb4c1e6)"><g clip-path="url(#edfb723650)"><g transform="matrix(1, 0, 0, 1, 36, 35)"><g clip-path="url(#b8fddc9c7e)"><g clip-path="url(#4a0096a87c)"><g clip-path="url(#4c4356e7ec)"><path fill="#28313b" d="M -2.453125 0.648438 L 15.703125 0.648438 L 15.703125 16.507812 L -2.453125 16.507812 Z M -2.453125 0.648438 " fill-opacity="1" fill-rule="nonzero"/></g></g></g></g></g></g><g clip-path="url(#0fb9db23cb)"><g clip-path="url(#12708fb9ba)"><g transform="matrix(1, 0, 0, 1, 14, 1)"><g clip-path="url(#aecef1134d)"><g clip-path="url(#919dbe9654)"><g clip-path="url(#7c1667bbf8)"><path fill="#d9d9d9" d="M -2.492188 0.234375 L 16.6875 0.234375 L 16.6875 16.996094 L -2.492188 16.996094 Z M -2.492188 0.234375 " fill-opacity="1" fill-rule="nonzero"/></g></g></g></g></g></g><g clip-path="url(#645297feeb)"><g clip-path="url(#ccaae0bc73)"><g transform="matrix(1, 0, 0, 1, 3, 4)"><g clip-path="url(#6c966ff3d0)"><g clip-path="url(#f1f043a077)"><g clip-path="url(#3b537b2aad)"><path fill="#d9d9d9" d="M 16.722656 12.757812 L -2.457031 12.757812 L -2.457031 -4 L 16.722656 -4 Z M 16.722656 12.757812 " fill-opacity="1" fill-rule="nonzero"/></g></g></g></g></g></g><g clip-path="url(#95853bb5cf)"><g clip-path="url(#3d96877f62)"><g transform="matrix(1, 0, 0, 1, 1, 17)"><g clip-path="url(#7f3475a641)"><g clip-path="url(#d720f1768b)"><g clip-path="url(#2fdd0ffb51)"><path fill="#d9d9d9" d="M 0.546875 0.390625 L 17.726562 0.390625 L 17.726562 17.570312 L 0.546875 17.570312 Z M 0.546875 0.390625 " fill-opacity="1" fill-rule="nonzero"/></g></g></g></g></g></g><g clip-path="url(#68097681cc)"><g clip-path="url(#a29596eb49)"><g transform="matrix(1, 0, 0, 1, 25, 4)"><g clip-path="url(#28f516c570)"><g clip-path="url(#57f4ce4170)"><g clip-path="url(#f71f7026bf)"><path fill="#d9d9d9" d="M 16.613281 12.757812 L -2.566406 12.757812 L -2.566406 -4 L 16.613281 -4 Z M 16.613281 12.757812 " fill-opacity="1" fill-rule="nonzero"/></g></g></g></g></g></g><g clip-path="url(#6678e27ab1)"><g clip-path="url(#f689ae5e52)"><g transform="matrix(1, 0, 0, 1, 14, 38)"><g clip-path="url(#5c4ab2a3d6)"><g clip-path="url(#32ea6eedd0)"><g clip-path="url(#e49a4dc85d)"><path fill="#d9d9d9" d="M 16.667969 12.636719 L -2.511719 12.636719 L -2.511719 -4.121094 L 16.667969 -4.121094 Z M 16.667969 12.636719 " fill-opacity="1" fill-rule="nonzero"/></g></g></g></g></g></g><g clip-path="url(#c81fd205c3)"><g clip-path="url(#b24a34c564)"><g transform="matrix(1, 0, 0, 1, 25, 35)"><g clip-path="url(#f960d6d466)"><g clip-path="url(#a489f71abe)"><g clip-path="url(#678c8ba89d)"><path fill="#d9d9d9" d="M -2.546875 0.113281 L 16.632812 0.113281 L 16.632812 16.871094 L -2.546875 16.871094 Z M -2.546875 0.113281 " fill-opacity="1" fill-rule="nonzero"/></g></g></g></g></g></g><g clip-path="url(#9518b22170)"><g clip-path="url(#180216cd3e)"><g transform="matrix(1, 0, 0, 1, 3, 35)"><g clip-path="url(#c2733dbf98)"><g clip-path="url(#d14e92fc83)"><g clip-path="url(#e8657be6c0)"><path fill="#d9d9d9" d="M -2.4375 0.113281 L 16.742188 0.113281 L 16.742188 16.871094 L -2.4375 16.871094 Z M -2.4375 0.113281 " fill-opacity="1" fill-rule="nonzero"/></g></g></g></g></g></g><g clip-path="url(#982877a102)"><g clip-path="url(#3417e9fca9)"><g transform="matrix(1, 0, 0, 1, 15, 1)"><g clip-path="url(#ad4fc5edfa)"><g clip-path="url(#8805635945)"><g clip-path="url(#0ca4856ee9)"><path fill="#28313b" d="M -3.019531 0.527344 L 15.136719 0.527344 L 15.136719 16.390625 L -3.019531 16.390625 Z M -3.019531 0.527344 " fill-opacity="1" fill-rule="nonzero"/></g></g></g></g></g></g><g clip-path="url(#35e91e65f8)"><g clip-path="url(#1947c9abab)"><g transform="matrix(1, 0, 0, 1, 4, 4)"><g clip-path="url(#3a1f21e79e)"><g clip-path="url(#35492ddd58)"><g clip-path="url(#eaab9839f4)"><path fill="#28313b" d="M 15.28125 12.539062 L -2.871094 12.539062 L -2.871094 -3.320312 L 15.28125 -3.320312 Z M 15.28125 12.539062 " fill-opacity="1" fill-rule="nonzero"/></g></g></g></g></g></g><g clip-path="url(#bb111be58c)"><g clip-path="url(#6fb0bd7f50)"><g transform="matrix(1, 0, 0, 1, 2, 17)"><g clip-path="url(#cf870d7211)"><g clip-path="url(#94038f18a6)"><g clip-path="url(#dbd3e398ef)"><path fill="#28313b" d="M 0.0820312 0.890625 L 16.339844 0.890625 L 16.339844 17.152344 L 0.0820312 17.152344 Z M 0.0820312 0.890625 " fill-opacity="1" fill-rule="nonzero"/></g></g></g></g></g></g><g clip-path="url(#1a01a9067f)"><g clip-path="url(#731bdeea18)"><g transform="matrix(1, 0, 0, 1, 26, 4)"><g clip-path="url(#03553a8f26)"><g clip-path="url(#4dd06f5565)"><g clip-path="url(#a21b3fec87)"><path fill="#28313b" d="M 15.140625 12.539062 L -3.015625 12.539062 L -3.015625 -3.320312 L 15.140625 -3.320312 Z M 15.140625 12.539062 " fill-opacity="1" fill-rule="nonzero"/></g></g></g></g></g></g><g clip-path="url(#126b1a187b)"><g clip-path="url(#c24106069b)"><g transform="matrix(1, 0, 0, 1, 15, 38)"><g clip-path="url(#26dec051f8)"><g clip-path="url(#9cd2090d50)"><g clip-path="url(#0bb6f8de16)"><path fill="#28313b" d="M 15.195312 12.1875 L -2.960938 12.1875 L -2.960938 -3.671875 L 15.195312 -3.671875 Z M 15.195312 12.1875 " fill-opacity="1" fill-rule="nonzero"/></g></g></g></g></g></g><g clip-path="url(#dd4d044d53)"><g clip-path="url(#60ea4b083e)"><g transform="matrix(1, 0, 0, 1, 26, 35)"><g clip-path="url(#ccc8dffa9a)"><g clip-path="url(#ce50421a75)"><g clip-path="url(#86aa7c3add)"><path fill="#28313b" d="M -3.03125 0.5625 L 15.121094 0.5625 L 15.121094 16.425781 L -3.03125 16.425781 Z M -3.03125 0.5625 " fill-opacity="1" fill-rule="nonzero"/></g></g></g></g></g></g><g clip-path="url(#dcd7b0b5ad)"><g clip-path="url(#a1843d45da)"><g transform="matrix(1, 0, 0, 1, 4, 35)"><g clip-path="url(#3a05d9412a)"><g clip-path="url(#cea18d6086)"><g clip-path="url(#68ebcf9808)"><path fill="#28313b" d="M -2.875 0.5625 L 15.277344 0.5625 L 15.277344 16.425781 L -2.875 16.425781 Z M -2.875 0.5625 " fill-opacity="1" fill-rule="nonzero"/></g></g></g></g></g></g><g clip-path="url(#4a37b251a2)"><g clip-path="url(#61b4175726)"><g transform="matrix(1, 0, 0, 1, 19, 22)"><g clip-path="url(#9b2fdbafd6)"><g clip-path="url(#f362934e0f)"><g clip-path="url(#4f781d1bd2)"><path fill="#568afc" d="M 0.429688 0.753906 L 14.476562 0.753906 L 14.476562 6.984375 L 0.429688 6.984375 Z M 0.429688 0.753906 " fill-opacity="1" fill-rule="nonzero"/></g></g></g></g></g></g><g clip-path="url(#06657e6b16)"><g clip-path="url(#a753b79eaf)"><g transform="matrix(1, 0, 0, 1, 23, 18)"><g clip-path="url(#baf66c8da5)"><g clip-path="url(#a39b5d8282)"><g clip-path="url(#9f772ecdb7)"><path fill="#568afc" d="M 0.332031 14.953125 L 0.332031 0.90625 L 6.5625 0.90625 L 6.5625 14.953125 Z M 0.332031 14.953125 " fill-opacity="1" fill-rule="nonzero"/></g></g></g></g></g></g><g clip-path="url(#72407caa10)"><g clip-path="url(#ddb627edb3)"><g transform="matrix(1, 0, 0, 1, 51, 22)"><g clip-path="url(#f9dcb4016d)"><g clip-path="url(#8fb8d2a7b9)"><g clip-path="url(#b7d4d68dfe)"><path fill="#568afc" d="M 0.804688 0.839844 L 14.855469 0.839844 L 14.855469 7.070312 L 0.804688 7.070312 Z M 0.804688 0.839844 " fill-opacity="1" fill-rule="nonzero"/></g></g></g></g></g></g><g clip-path="url(#09ee685860)"><g clip-path="url(#72664e30a4)"><g transform="matrix(1, 0, 0, 1, 55, 19)"><g clip-path="url(#4ccae2e601)"><g clip-path="url(#bd19eb3810)"><g clip-path="url(#d10c0ac4d4)"><path fill="#568afc" d="M 0.707031 14.039062 L 0.707031 -0.0078125 L 6.941406 -0.0078125 L 6.941406 14.039062 Z M 0.707031 14.039062 " fill-opacity="1" fill-rule="nonzero"/></g></g></g></g></g></g></g></g></g></svg>