<svg version="1.2" xmlns="http://www.w3.org/2000/svg" viewBox="0 0 521 512" width="521" height="512">
	<style>
		.s0 { fill: #ff4141 } 
		.s1 { fill: #fffdfd } 
	</style>
	<path class="s0" d="m230 1c21.02 0 42.04 0 63.28 0.38 1.06 0.79 1.87 1.39 2.76 1.58 13.81 2.99 27.8 5.34 41.43 9 20.87 5.6 40.19 15.02 58.73 26.06 17.58 10.47 33.19 23.49 47.74 37.68 8.07 7.88 14.88 17.08 22.07 25.84 13.99 17.03 24.48 36.2 32.84 56.46 8.65 20.97 15.16 42.61 17.25 65.37 0.06 0.6 1.24 1.09 1.9 1.63 0 21.02 0 42.04-0.38 63.28-0.78 0.89-1.43 1.53-1.55 2.26-1.07 6.27-1.87 12.59-3.07 18.84-6.14 31.9-18.5 61.28-36.3 88.39-11.11 16.91-23.68 32.65-39 45.99-8.3 7.22-16.56 14.51-25.28 21.19-16.27 12.47-34.23 22.27-53.2 29.78-20.42 8.09-41.46 14.51-63.59 16.37-0.59 0.05-1.09 1.24-1.63 1.9-21.02 0-42.04 0-63.28-0.38-0.89-0.78-1.53-1.43-2.26-1.55-8.19-1.4-16.48-2.36-24.59-4.14-28.09-6.16-54.36-17.12-78.58-32.45-18.43-11.66-35.72-25.02-50.04-41.75-7.15-8.35-14.52-16.56-21.18-25.29-12.52-16.43-22.36-34.51-29.92-53.67-8.02-20.31-14.33-41.19-16.25-63.14-0.05-0.59-1.24-1.09-1.9-1.63 0-21.02 0-42.04 0.38-63.28 0.78-0.9 1.43-1.53 1.55-2.26 1.07-6.27 1.9-12.58 3.06-18.83 5.24-28.33 15.83-54.72 30.5-79.34 12.28-20.61 27.39-39.05 45.03-55.54 15.78-14.75 32.93-27.41 51.79-37.75 27.98-15.34 57.77-25.32 89.56-29.08 0.78-0.09 1.42-1.26 2.13-1.92zm-78.51 171.48c0.21 7.78 3.62 13.95 9.06 19.36 22.34 22.21 44.58 44.52 66.84 66.79 1.26 1.26 2.45 2.58 4.1 4.32-1.62 1.42-3.06 2.55-4.35 3.84-22.29 22.25-44.58 44.5-66.82 66.81-11.26 11.3-11.81 26.99-1.45 37.45 10.53 10.65 26.26 10.12 37.8-1.38 16.89-16.82 33.72-33.69 50.56-50.54 6.71-6.71 13.39-13.45 20.75-20.85 1.34 1.69 2.36 3.25 3.65 4.54q32.84 32.91 65.74 65.76c1.76 1.76 3.55 3.54 5.55 5.02 13.88 10.34 33.72 4.2 39.24-12.22 3.62-10.75 0.59-19.92-7.29-27.78q-33.6-33.56-67.17-67.16c-1.25-1.26-2.45-2.58-4-4.2 3.84-3.7 7.5-7.1 11.03-10.63 20.17-20.13 40.35-40.26 60.45-60.46 9.76-9.81 11.23-23.09 3.93-33.63-9.35-13.48-27.73-14.86-39.95-2.73-22.59 22.42-45.05 44.98-67.51 67.52-1.29 1.29-2.15 2.99-3.89 5.47-2.05-2.66-3.02-4.26-4.31-5.55-22.24-22.3-44.56-44.52-66.78-66.85-8.03-8.07-17.41-11.16-28.22-7.3-10.82 3.87-16.3 12.12-16.96 24.4z"/>
	<path class="s1" d="m151.49 172.07c0.66-11.87 6.14-20.12 16.96-23.99 10.81-3.86 20.19-0.77 28.22 7.3 22.22 22.33 44.54 44.55 66.78 66.85 1.29 1.29 2.26 2.89 4.31 5.55 1.74-2.48 2.6-4.18 3.89-5.47 22.46-22.54 44.92-45.1 67.51-67.52 12.22-12.13 30.6-10.75 39.95 2.73 7.3 10.54 5.83 23.82-3.93 33.63-20.1 20.2-40.28 40.33-60.45 60.46-3.53 3.53-7.19 6.93-11.03 10.63 1.55 1.62 2.75 2.94 4 4.2q33.57 33.6 67.17 67.16c7.88 7.86 10.91 17.03 7.29 27.78-5.52 16.42-25.36 22.56-39.24 12.22-2-1.48-3.79-3.26-5.55-5.02q-32.9-32.85-65.74-65.76c-1.29-1.29-2.31-2.85-3.65-4.54-7.36 7.4-14.04 14.14-20.75 20.85-16.84 16.85-33.67 33.72-50.56 50.54-11.54 11.5-27.27 12.03-37.8 1.38-10.36-10.46-9.81-26.15 1.45-37.45 22.24-22.31 44.53-44.56 66.82-66.81 1.29-1.29 2.73-2.42 4.35-3.84-1.65-1.74-2.84-3.06-4.1-4.32-22.26-22.27-44.5-44.58-66.84-66.79-5.44-5.41-8.85-11.58-9.06-19.77z"/>
</svg>